# xmcd CD database file
#
# Track frame offsets:
#	150
#	8265
#	30090
#	48497
#	65620
#	84707
#	108295
#	128702
#	146322
#	163352
#	181130
#	204715
#	229007
#	247020
#	282877
#
# Disc length: 4440 seconds
#
# Revision: 0
# Processed by: cddbd v1.5.1PL0 Copyright (c) Steve Scherf et al.
# Submitted via: CDex 1.60beta1
#
DISCID=c311560f
DTITLE=小久保　淳平 - セカンド・ステージ
DYEAR=2003
DGENRE=J-POP
TTITLE0=Instrumental
TTITLE1=エピソード
TTITLE2=Re-start
TTITLE3=勝利の旗
TTITLE4=パンの匂い
TTITLE5=FUZZ
TTITLE6=コンタクト(Album Edit)
TTITLE7=in 1999
TTITLE8=クリームソーダ
TTITLE9=金のピストル(Album Mix)
TTITLE10=Hello
TTITLE11=Orange
TTITLE12=さよなら
TTITLE13=Saven Stars
TTITLE14=CCCD
EXTD=YEAR: 2003
EXTT0=
EXTT1=
EXTT2=
EXTT3=
EXTT4=
EXTT5=
EXTT6=
EXTT7=
EXTT8=
EXTT9=
EXTT10=
EXTT11=
EXTT12=
EXTT13=
EXTT14=
PLAYORDER=
